<svg width="207" height="38" viewBox="0 0 207 38" fill="none" xmlns="http://www.w3.org/2000/svg">
<path d="M14.816 37L6.56 10.12H6.368C6.4 10.76 6.448 11.72 6.512 13C6.576 14.28 6.64 15.656 6.704 17.128C6.768 18.568 6.8 19.88 6.8 21.064V37H0.32V2.728H10.208L18.32 28.936H18.464L27.056 2.728H36.944V37H30.176V20.776C30.176 19.688 30.192 18.44 30.224 17.032C30.288 15.624 30.336 14.296 30.368 13.048C30.432 11.768 30.48 10.808 30.512 10.168H30.32L21.488 37H14.816ZM55.8253 10.312C58.2573 10.312 60.3373 10.776 62.0653 11.704C63.8253 12.632 65.1853 13.976 66.1453 15.736C67.1053 17.496 67.5853 19.656 67.5853 22.216V25.672H50.6893C50.7533 27.688 51.3453 29.272 52.4653 30.424C53.6173 31.576 55.2013 32.152 57.2173 32.152C58.9133 32.152 60.4493 31.992 61.8253 31.672C63.2013 31.32 64.6253 30.792 66.0973 30.088V35.608C64.8173 36.248 63.4573 36.712 62.0173 37C60.6093 37.32 58.8973 37.48 56.8813 37.48C54.2573 37.48 51.9373 37 49.9213 36.04C47.9053 35.048 46.3213 33.56 45.1693 31.576C44.0173 29.592 43.4413 27.096 43.4413 24.088C43.4413 21.016 43.9533 18.472 44.9773 16.456C46.0333 14.408 47.4893 12.872 49.3453 11.848C51.2013 10.824 53.3613 10.312 55.8253 10.312ZM55.8733 15.4C54.4973 15.4 53.3453 15.848 52.4173 16.744C51.5213 17.64 50.9933 19.032 50.8333 20.92H60.8653C60.8653 19.864 60.6733 18.92 60.2893 18.088C59.9373 17.256 59.3933 16.6 58.6573 16.12C57.9213 15.64 56.9933 15.4 55.8733 15.4ZM81.6886 37.48C78.7766 37.48 76.3926 36.344 74.5366 34.072C72.7126 31.768 71.8006 28.392 71.8006 23.944C71.8006 19.464 72.7286 16.072 74.5846 13.768C76.4406 11.464 78.8726 10.312 81.8806 10.312C83.1286 10.312 84.2326 10.488 85.1926 10.84C86.1526 11.16 86.9686 11.608 87.6406 12.184C88.3446 12.76 88.9366 13.416 89.4166 14.152H89.6566C89.5606 13.64 89.4486 12.904 89.3206 11.944C89.1926 10.952 89.1286 9.944 89.1286 8.92V0.519998H96.2806V37H90.8086L89.4166 33.592H89.1286C88.6806 34.296 88.1046 34.952 87.4006 35.56C86.7286 36.136 85.9286 36.6 85.0006 36.952C84.0726 37.304 82.9686 37.48 81.6886 37.48ZM84.1846 31.768C86.1686 31.768 87.5606 31.192 88.3606 30.04C89.1606 28.856 89.5766 27.096 89.6086 24.76V23.992C89.6086 21.432 89.2086 19.48 88.4086 18.136C87.6406 16.792 86.2006 16.12 84.0886 16.12C82.5206 16.12 81.2886 16.808 80.3926 18.184C79.4966 19.528 79.0486 21.48 79.0486 24.04C79.0486 26.6 79.4966 28.536 80.3926 29.848C81.2886 31.128 82.5526 31.768 84.1846 31.768Z" fill="#F28A75"/>
<path d="M118.88 8.296C117.504 8.296 116.272 8.568 115.184 9.112C114.128 9.656 113.232 10.44 112.496 11.464C111.76 12.456 111.2 13.672 110.816 15.112C110.464 16.552 110.288 18.168 110.288 19.96C110.288 22.392 110.576 24.472 111.152 26.2C111.76 27.896 112.704 29.192 113.984 30.088C115.264 30.984 116.896 31.432 118.88 31.432C120.288 31.432 121.68 31.272 123.056 30.952C124.464 30.632 125.984 30.184 127.616 29.608V35.704C126.112 36.312 124.624 36.76 123.152 37.048C121.68 37.336 120.032 37.48 118.208 37.48C114.688 37.48 111.776 36.76 109.472 35.32C107.2 33.848 105.52 31.8 104.432 29.176C103.344 26.52 102.8 23.432 102.8 19.912C102.8 17.32 103.152 14.952 103.856 12.808C104.56 10.632 105.584 8.76 106.928 7.192C108.304 5.624 109.984 4.408 111.968 3.544C113.984 2.68 116.288 2.248 118.88 2.248C120.576 2.248 122.272 2.472 123.968 2.92C125.696 3.336 127.344 3.912 128.912 4.648L126.56 10.552C125.28 9.944 123.984 9.416 122.672 8.968C121.392 8.52 120.128 8.296 118.88 8.296ZM145.074 10.264C148.594 10.264 151.282 11.032 153.138 12.568C155.026 14.072 155.97 16.392 155.97 19.528V37H150.978L149.586 33.448H149.394C148.658 34.376 147.89 35.144 147.09 35.752C146.322 36.36 145.426 36.792 144.402 37.048C143.41 37.336 142.178 37.48 140.706 37.48C139.17 37.48 137.778 37.192 136.53 36.616C135.314 36.008 134.354 35.096 133.65 33.88C132.946 32.632 132.594 31.064 132.594 29.176C132.594 26.392 133.57 24.344 135.522 23.032C137.474 21.688 140.402 20.952 144.306 20.824L148.866 20.68V19.528C148.866 18.152 148.498 17.144 147.762 16.504C147.058 15.864 146.066 15.544 144.786 15.544C143.506 15.544 142.258 15.736 141.042 16.12C139.826 16.472 138.61 16.92 137.394 17.464L135.042 12.616C136.45 11.88 138.002 11.304 139.698 10.888C141.426 10.472 143.218 10.264 145.074 10.264ZM146.082 24.952C143.778 25.016 142.178 25.432 141.282 26.2C140.386 26.968 139.938 27.976 139.938 29.224C139.938 30.312 140.258 31.096 140.898 31.576C141.538 32.024 142.37 32.248 143.394 32.248C144.93 32.248 146.226 31.8 147.282 30.904C148.338 29.976 148.866 28.68 148.866 27.016V24.856L146.082 24.952ZM177.931 10.312C178.283 10.312 178.699 10.328 179.179 10.36C179.659 10.392 180.043 10.44 180.331 10.504L179.803 17.224C179.579 17.16 179.243 17.112 178.795 17.08C178.379 17.016 178.011 16.984 177.691 16.984C176.763 16.984 175.867 17.112 175.003 17.368C174.139 17.592 173.355 17.96 172.651 18.472C171.979 18.984 171.435 19.672 171.019 20.536C170.635 21.368 170.443 22.408 170.443 23.656V37H163.291V10.792H168.715L169.771 15.208H170.107C170.619 14.312 171.259 13.496 172.027 12.76C172.795 12.024 173.675 11.432 174.667 10.984C175.691 10.536 176.779 10.312 177.931 10.312ZM194.95 10.312C197.382 10.312 199.462 10.776 201.19 11.704C202.95 12.632 204.31 13.976 205.27 15.736C206.23 17.496 206.71 19.656 206.71 22.216V25.672H189.814C189.878 27.688 190.47 29.272 191.59 30.424C192.742 31.576 194.326 32.152 196.342 32.152C198.038 32.152 199.574 31.992 200.95 31.672C202.326 31.32 203.75 30.792 205.222 30.088V35.608C203.942 36.248 202.582 36.712 201.142 37C199.734 37.32 198.022 37.48 196.006 37.48C193.382 37.48 191.062 37 189.046 36.04C187.03 35.048 185.446 33.56 184.294 31.576C183.142 29.592 182.566 27.096 182.566 24.088C182.566 21.016 183.078 18.472 184.102 16.456C185.158 14.408 186.614 12.872 188.47 11.848C190.326 10.824 192.486 10.312 194.95 10.312ZM194.998 15.4C193.622 15.4 192.47 15.848 191.542 16.744C190.646 17.64 190.118 19.032 189.958 20.92H199.99C199.99 19.864 199.798 18.92 199.414 18.088C199.062 17.256 198.518 16.6 197.782 16.12C197.046 15.64 196.118 15.4 194.998 15.4Z" fill="white"/>
</svg>
